<svg width="44" height="44" viewBox="0 0 44 44" fill="none" xmlns="http://www.w3.org/2000/svg">
<path d="M18.3333 27.5L18.3333 22" stroke="#CCCCCC" stroke-width="3" stroke-linecap="round"/>
<path d="M25.6667 27.5L25.6667 22" stroke="#CCCCCC" stroke-width="3" stroke-linecap="round"/>
<path d="M5.5 12.8333H38.5H37C35.1144 12.8333 34.1716 12.8333 33.5858 13.419C33 14.0048 33 14.9476 33 16.8333V32.6666C33 34.5522 33 35.495 32.4142 36.0808C31.8284 36.6666 30.8856 36.6666 29 36.6666H15C13.1144 36.6666 12.1716 36.6666 11.5858 36.0808C11 35.495 11 34.5522 11 32.6666V16.8333C11 14.9476 11 14.0048 10.4142 13.419C9.82843 12.8333 8.88562 12.8333 7 12.8333H5.5Z" stroke="#CCCCCC" stroke-width="3" stroke-linecap="round"/>
<path d="M18.4583 6.17942C18.6672 5.9845 19.1275 5.81227 19.7679 5.68943C20.4083 5.56658 21.1929 5.5 22 5.5C22.8072 5.5 23.5918 5.56658 24.2321 5.68943C24.8725 5.81227 25.3328 5.9845 25.5417 6.17942" stroke="#CCCCCC" stroke-width="3" stroke-linecap="round"/>
</svg>
