<svg width="175" height="175" viewBox="0 0 175 175" fill="none" xmlns="http://www.w3.org/2000/svg">
<circle cx="87.5" cy="87.5" r="87" fill="white" stroke="#DBDBDB"/>
<path d="M141.62 151.668H128.724C128.724 129.912 110.476 112.218 88.0301 112.218C65.5842 112.218 47.3425 129.919 47.3425 151.668H34.4463C34.4463 122.793 58.4913 99.3223 88.0365 99.3223C117.575 99.3223 141.62 122.793 141.62 151.668Z" fill="#99B6C6"/>
<path d="M88.0362 95.1303C68.5436 95.1303 52.6748 79.255 52.6748 59.7624C52.6684 40.2633 68.5371 24.3945 88.0362 24.3945C107.542 24.3945 123.411 40.2569 123.411 59.7624C123.411 79.2679 107.542 95.1303 88.0362 95.1303ZM88.0362 37.2907C75.643 37.2907 65.5646 47.3691 65.5646 59.7624C65.5646 72.1557 75.643 82.234 88.0362 82.234C100.436 82.234 110.514 72.1557 110.514 59.7624C110.514 47.3691 100.423 37.2907 88.0362 37.2907Z" fill="#99B6C6"/>
</svg>
